<svg xmlns="http://www.w3.org/2000/svg" xmlns:xlink="http://www.w3.org/1999/xlink" xmlns:s="https://github.com/nturley/netlistsvg" width="523" height="418.5">
  <style>svg {
    stroke:#000;
    fill:none;
  }
  text {
    fill:#000;
    stroke:none;
    font-size:10px;
    font-weight: bold;
    font-family: "Courier New", monospace;
  }
  .nodelabel {
    text-anchor: middle;
  }
  .inputPortLabel {
    text-anchor: end;
  }
  .splitjoinBody {
    fill:#000;
  }</style>
  <g s:type="eq" transform="translate(171.66666666666666,316.5)" s:width="25" s:height="25" id="cell_$eq$../hardware/MMU/MMU.v:16$4">
    <s:alias val="$eq"/>
    <circle r="12.5" cx="12.5" cy="12.5" class="cell_$eq$../hardware/MMU/MMU.v:16$4"/>
    <line x1="7.5" x2="17.5" y1="10" y2="10" class="cell_$eq$../hardware/MMU/MMU.v:16$4"/>
    <line x1="7.5" x2="17.5" y1="15" y2="15" class="cell_$eq$../hardware/MMU/MMU.v:16$4"/>
    <g s:x="3" s:y="5" s:pid="A"/>
    <g s:x="3" s:y="20" s:pid="B"/>
    <g s:x="25" s:y="12.5" s:pid="Y"/>
  </g>
  <g s:type="ge" transform="translate(86.66666666666667,69)" s:width="25" s:height="25" id="cell_$ge$../hardware/MMU/MMU.v:15$1">
    <s:alias val="$ge"/>
    <circle r="12.5" cx="12.5" cy="12.5" class="cell_$ge$../hardware/MMU/MMU.v:15$1"/>
    <line x1="7.5" x2="17.5" y1="7.5" y2="12.5" class="cell_$ge$../hardware/MMU/MMU.v:15$1"/>
    <line x1="7.5" x2="17.5" y1="17.5" y2="12.5" class="cell_$ge$../hardware/MMU/MMU.v:15$1"/>
    <line x1="7.5" x2="17.5" y1="20" y2="15" class="cell_$ge$../hardware/MMU/MMU.v:15$1"/>
    <g s:x="3" s:y="5" s:pid="A"/>
    <g s:x="3" s:y="20" s:pid="B"/>
    <g s:x="25" s:y="12.5" s:pid="Y"/>
  </g>
  <g s:type="le" transform="translate(86.66666666666667,199)" s:width="25" s:height="25" id="cell_$le$../hardware/MMU/MMU.v:15$2">
    <s:alias val="$le"/>
    <circle r="12.5" cx="12.5" cy="12.5" class="cell_$le$../hardware/MMU/MMU.v:15$2"/>
    <line x1="7.5" x2="17.5" y1="12.5" y2="7.5" class="cell_$le$../hardware/MMU/MMU.v:15$2"/>
    <line x1="7.5" x2="17.5" y1="12.5" y2="17.5" class="cell_$le$../hardware/MMU/MMU.v:15$2"/>
    <line x1="7.5" x2="17.5" y1="15" y2="20" class="cell_$le$../hardware/MMU/MMU.v:15$2"/>
    <g s:x="3" s:y="5" s:pid="A"/>
    <g s:x="3" s:y="20" s:pid="B"/>
    <g s:x="25" s:y="12.5" s:pid="Y"/>
  </g>
  <g s:type="and" transform="translate(170,191.5)" s:width="30" s:height="25" id="cell_$logic_and$../hardware/MMU/MMU.v:15$3">
    <s:alias val="$and"/>
    <s:alias val="$logic_and"/>
    <s:alias val="$_AND_"/>
    <path d="M0,0 L0,25 L15,25 A15 12.5 0 0 0 15,0 Z" class="cell_$logic_and$../hardware/MMU/MMU.v:15$3"/>
    <g s:x="0" s:y="5" s:pid="A"/>
    <g s:x="0" s:y="20" s:pid="B"/>
    <g s:x="30" s:y="12.5" s:pid="Y"/>
  </g>
  <g s:type="and" transform="translate(283,184)" s:width="30" s:height="25" id="cell_$logic_and$../hardware/MMU/MMU.v:19$6">
    <s:alias val="$and"/>
    <s:alias val="$logic_and"/>
    <s:alias val="$_AND_"/>
    <path d="M0,0 L0,25 L15,25 A15 12.5 0 0 0 15,0 Z" class="cell_$logic_and$../hardware/MMU/MMU.v:19$6"/>
    <g s:x="0" s:y="5" s:pid="A"/>
    <g s:x="0" s:y="20" s:pid="B"/>
    <g s:x="30" s:y="12.5" s:pid="Y"/>
  </g>
  <g s:type="and" transform="translate(380,278)" s:width="30" s:height="25" id="cell_$logic_and$../hardware/MMU/MMU.v:20$7">
    <s:alias val="$and"/>
    <s:alias val="$logic_and"/>
    <s:alias val="$_AND_"/>
    <path d="M0,0 L0,25 L15,25 A15 12.5 0 0 0 15,0 Z" class="cell_$logic_and$../hardware/MMU/MMU.v:20$7"/>
    <g s:x="0" s:y="5" s:pid="A"/>
    <g s:x="0" s:y="20" s:pid="B"/>
    <g s:x="30" s:y="12.5" s:pid="Y"/>
  </g>
  <g s:type="and" transform="translate(380,376.5)" s:width="30" s:height="25" id="cell_$logic_and$../hardware/MMU/MMU.v:24$11">
    <s:alias val="$and"/>
    <s:alias val="$logic_and"/>
    <s:alias val="$_AND_"/>
    <path d="M0,0 L0,25 L15,25 A15 12.5 0 0 0 15,0 Z" class="cell_$logic_and$../hardware/MMU/MMU.v:24$11"/>
    <g s:x="0" s:y="5" s:pid="A"/>
    <g s:x="0" s:y="20" s:pid="B"/>
    <g s:x="30" s:y="12.5" s:pid="Y"/>
  </g>
  <g s:type="and" transform="translate(283,309)" s:width="30" s:height="25" id="cell_$logic_and$../hardware/MMU/MMU.v:24$9">
    <s:alias val="$and"/>
    <s:alias val="$logic_and"/>
    <s:alias val="$_AND_"/>
    <path d="M0,0 L0,25 L15,25 A15 12.5 0 0 0 15,0 Z" class="cell_$logic_and$../hardware/MMU/MMU.v:24$9"/>
    <g s:x="0" s:y="5" s:pid="A"/>
    <g s:x="0" s:y="20" s:pid="B"/>
    <g s:x="30" s:y="12.5" s:pid="Y"/>
  </g>
  <g s:type="not" transform="translate(291,386.5)" s:width="30" s:height="20" id="cell_$logic_not$../hardware/MMU/MMU.v:24$10">
    <s:alias val="$_NOT_"/>
    <s:alias val="$not"/>
    <s:alias val="$logic_not"/>
    <path d="M0,0 L0,20 L20,10 Z" class="cell_$logic_not$../hardware/MMU/MMU.v:24$10"/>
    <circle cx="23" cy="10" r="3" class="cell_$logic_not$../hardware/MMU/MMU.v:24$10"/>
    <g s:x="0" s:y="10" s:pid="A"/>
    <g s:x="25" s:y="10" s:pid="Y"/>
  </g>
  <g s:type="mux" transform="translate(383.3333333333333,109)" s:width="20" s:height="40" id="cell_$procmux$29">
    <s:alias val="$pmux"/>
    <s:alias val="$mux"/>
    <s:alias val="$_MUX_"/>
    <path d="M0,0 L20,10 L20,30 L0,40 Z" class="cell_$procmux$29"/>
    <g s:x="0" s:y="10" s:pid="A"/>
    <g s:x="0" s:y="30" s:pid="B"/>
    <g s:x="10" s:y="35" s:pid="S"/>
    <g s:x="20" s:y="20" s:pid="Y"/>
  </g>
  <g s:type="inputExt" transform="translate(154,386.5)" s:width="30" s:height="20" id="cell_uart_busy">
    <text x="15" y="-4" class="nodelabel cell_uart_busy" s:attribute="ref">uart_busy</text>
    <s:alias val="$_inputExt_"/>
    <path d="M0,0 L0,20 L15,20 L30,10 L15,0 Z" class="cell_uart_busy"/>
    <g s:x="28" s:y="10" s:pid="Y"/>
  </g>
  <g s:type="inputExt" transform="translate(12,144)" s:width="30" s:height="20" id="cell_addr">
    <text x="15" y="-4" class="nodelabel cell_addr" s:attribute="ref">addr</text>
    <s:alias val="$_inputExt_"/>
    <path d="M0,0 L0,20 L15,20 L30,10 L15,0 Z" class="cell_addr"/>
    <g s:x="28" s:y="10" s:pid="Y"/>
  </g>
  <g s:type="inputExt" transform="translate(267,129)" s:width="30" s:height="20" id="cell_data_from_ram">
    <text x="15" y="-4" class="nodelabel cell_data_from_ram" s:attribute="ref">data_from_ram</text>
    <s:alias val="$_inputExt_"/>
    <path d="M0,0 L0,20 L15,20 L30,10 L15,0 Z" class="cell_data_from_ram"/>
    <g s:x="28" s:y="10" s:pid="Y"/>
  </g>
  <g s:type="inputExt" transform="translate(12,22)" s:width="30" s:height="20" id="cell_data_from_cpu">
    <text x="15" y="-4" class="nodelabel cell_data_from_cpu" s:attribute="ref">data_from_cpu</text>
    <s:alias val="$_inputExt_"/>
    <path d="M0,0 L0,20 L15,20 L30,10 L15,0 Z" class="cell_data_from_cpu"/>
    <g s:x="28" s:y="10" s:pid="Y"/>
  </g>
  <g s:type="inputExt" transform="translate(154,136.5)" s:width="30" s:height="20" id="cell_mem_read_cpu">
    <text x="15" y="-4" class="nodelabel cell_mem_read_cpu" s:attribute="ref">mem_read_cpu</text>
    <s:alias val="$_inputExt_"/>
    <path d="M0,0 L0,20 L15,20 L30,10 L15,0 Z" class="cell_mem_read_cpu"/>
    <g s:x="28" s:y="10" s:pid="Y"/>
  </g>
  <g s:type="inputExt" transform="translate(154,261.5)" s:width="30" s:height="20" id="cell_mem_write_cpu">
    <text x="15" y="-4" class="nodelabel cell_mem_write_cpu" s:attribute="ref">mem_write_cpu</text>
    <s:alias val="$_inputExt_"/>
    <path d="M0,0 L0,20 L15,20 L30,10 L15,0 Z" class="cell_mem_write_cpu"/>
    <g s:x="28" s:y="10" s:pid="Y"/>
  </g>
  <g s:type="outputExt" transform="translate(445,186.5)" s:width="30" s:height="20" id="cell_ram_read">
    <text x="15" y="-4" class="nodelabel cell_ram_read" s:attribute="ref">ram_read</text>
    <s:alias val="$_outputExt_"/>
    <path d="M30,0 L30,20 L15,20 L0,10 L15,0 Z" class="cell_ram_read"/>
    <g s:x="0" s:y="10" s:pid="A"/>
  </g>
  <g s:type="outputExt" transform="translate(445,280.5)" s:width="30" s:height="20" id="cell_ram_write">
    <text x="15" y="-4" class="nodelabel cell_ram_write" s:attribute="ref">ram_write</text>
    <s:alias val="$_outputExt_"/>
    <path d="M30,0 L30,20 L15,20 L0,10 L15,0 Z" class="cell_ram_write"/>
    <g s:x="0" s:y="10" s:pid="A"/>
  </g>
  <g s:type="outputExt" transform="translate(125,22)" s:width="30" s:height="20" id="cell_data_to_ram">
    <text x="15" y="-4" class="nodelabel cell_data_to_ram" s:attribute="ref">data_to_ram</text>
    <s:alias val="$_outputExt_"/>
    <path d="M30,0 L30,20 L15,20 L0,10 L15,0 Z" class="cell_data_to_ram"/>
    <g s:x="0" s:y="10" s:pid="A"/>
  </g>
  <g s:type="outputExt" transform="translate(445,119)" s:width="30" s:height="20" id="cell_data_to_cpu">
    <text x="15" y="-4" class="nodelabel cell_data_to_cpu" s:attribute="ref">data_to_cpu</text>
    <s:alias val="$_outputExt_"/>
    <path d="M30,0 L30,20 L15,20 L0,10 L15,0 Z" class="cell_data_to_cpu"/>
    <g s:x="0" s:y="10" s:pid="A"/>
  </g>
  <g s:type="outputExt" transform="translate(445,379)" s:width="30" s:height="20" id="cell_uart_write">
    <text x="15" y="-4" class="nodelabel cell_uart_write" s:attribute="ref">uart_write</text>
    <s:alias val="$_outputExt_"/>
    <path d="M30,0 L30,20 L15,20 L0,10 L15,0 Z" class="cell_uart_write"/>
    <g s:x="0" s:y="10" s:pid="A"/>
  </g>
  <g s:type="constant" transform="translate(83,326.5)" s:width="30" s:height="20" id="cell_00000000000000000100000000000000">
    <text x="15" y="-4" class="nodelabel cell_00000000000000000100000000000000" s:attribute="ref">0x4000</text>
    <s:alias val="$_constant_"/>
    <rect width="30" height="20" class="cell_00000000000000000100000000000000"/>
    <g s:x="30" s:y="10" s:pid="Y"/>
  </g>
  <g s:type="constant" transform="translate(12,79)" s:width="30" s:height="20" id="cell_00000000000000000010000000000000">
    <text x="15" y="-4" class="nodelabel cell_00000000000000000010000000000000" s:attribute="ref">0x2000</text>
    <s:alias val="$_constant_"/>
    <rect width="30" height="20" class="cell_00000000000000000010000000000000"/>
    <g s:x="30" s:y="10" s:pid="Y"/>
  </g>
  <g s:type="constant" transform="translate(12,209)" s:width="30" s:height="20" id="cell_00000000000000000011111111111111">
    <text x="15" y="-4" class="nodelabel cell_00000000000000000011111111111111" s:attribute="ref">0x3fff</text>
    <s:alias val="$_constant_"/>
    <rect width="30" height="20" class="cell_00000000000000000011111111111111"/>
    <g s:x="30" s:y="10" s:pid="Y"/>
  </g>
  <g s:type="constant" transform="translate(267,64)" s:width="30" s:height="20" id="cell_00000000000000000000000000000000">
    <text x="15" y="-4" class="nodelabel cell_00000000000000000000000000000000" s:attribute="ref">0x0</text>
    <s:alias val="$_constant_"/>
    <rect width="30" height="20" class="cell_00000000000000000000000000000000"/>
    <g s:x="30" s:y="10" s:pid="Y"/>
  </g>
  <line x1="40" x2="58" y1="154" y2="154" class="net_3,4,5,6,7,8,9,10,11,12,13,14,15,16,17,18,19,20,21,22,23,24,25,26,27,28,29,30,31,32,33,34"/>
  <line x1="58" x2="58" y1="154" y2="305.5" class="net_3,4,5,6,7,8,9,10,11,12,13,14,15,16,17,18,19,20,21,22,23,24,25,26,27,28,29,30,31,32,33,34"/>
  <line x1="58" x2="129" y1="305.5" y2="305.5" class="net_3,4,5,6,7,8,9,10,11,12,13,14,15,16,17,18,19,20,21,22,23,24,25,26,27,28,29,30,31,32,33,34"/>
  <line x1="129" x2="129" y1="305.5" y2="321.5" class="net_3,4,5,6,7,8,9,10,11,12,13,14,15,16,17,18,19,20,21,22,23,24,25,26,27,28,29,30,31,32,33,34"/>
  <circle cx="58" cy="154" r="2" style="fill:#000" class="net_3,4,5,6,7,8,9,10,11,12,13,14,15,16,17,18,19,20,21,22,23,24,25,26,27,28,29,30,31,32,33,34"/>
  <line x1="129" x2="174.66666666666666" y1="321.5" y2="321.5" class="net_3,4,5,6,7,8,9,10,11,12,13,14,15,16,17,18,19,20,21,22,23,24,25,26,27,28,29,30,31,32,33,34"/>
  <line x1="40" x2="58" y1="154" y2="154" class="net_3,4,5,6,7,8,9,10,11,12,13,14,15,16,17,18,19,20,21,22,23,24,25,26,27,28,29,30,31,32,33,34"/>
  <line x1="58" x2="58" y1="154" y2="74" class="net_3,4,5,6,7,8,9,10,11,12,13,14,15,16,17,18,19,20,21,22,23,24,25,26,27,28,29,30,31,32,33,34"/>
  <line x1="58" x2="89.66666666666667" y1="74" y2="74" class="net_3,4,5,6,7,8,9,10,11,12,13,14,15,16,17,18,19,20,21,22,23,24,25,26,27,28,29,30,31,32,33,34"/>
  <line x1="40" x2="58" y1="154" y2="154" class="net_3,4,5,6,7,8,9,10,11,12,13,14,15,16,17,18,19,20,21,22,23,24,25,26,27,28,29,30,31,32,33,34"/>
  <line x1="58" x2="58" y1="154" y2="204" class="net_3,4,5,6,7,8,9,10,11,12,13,14,15,16,17,18,19,20,21,22,23,24,25,26,27,28,29,30,31,32,33,34"/>
  <circle cx="58" cy="204" r="2" style="fill:#000" class="net_3,4,5,6,7,8,9,10,11,12,13,14,15,16,17,18,19,20,21,22,23,24,25,26,27,28,29,30,31,32,33,34"/>
  <line x1="58" x2="89.66666666666667" y1="204" y2="204" class="net_3,4,5,6,7,8,9,10,11,12,13,14,15,16,17,18,19,20,21,22,23,24,25,26,27,28,29,30,31,32,33,34"/>
  <line x1="113" x2="174.66666666666666" y1="336.5" y2="336.5" class="net_142,143,144,145,146,147,148,149,150,151,152,153,154,155,156,157,158,159,160,161,162,163,164,165,166,167,168,169,170,171,172,173"/>
  <line x1="42" x2="89.66666666666667" y1="89" y2="89" class="net_174,175,176,177,178,179,180,181,182,183,184,185,186,187,188,189,190,191,192,193,194,195,196,197,198,199,200,201,202,203,204,205"/>
  <line x1="42" x2="89.66666666666667" y1="219" y2="219" class="net_206,207,208,209,210,211,212,213,214,215,216,217,218,219,220,221,222,223,224,225,226,227,228,229,230,231,232,233,234,235,236,237"/>
  <line x1="111.66666666666667" x2="129" y1="81.5" y2="81.5" class="net_137"/>
  <line x1="129" x2="129" y1="81.5" y2="196.5" class="net_137"/>
  <line x1="129" x2="170" y1="196.5" y2="196.5" class="net_137"/>
  <line x1="111.66666666666667" x2="170" y1="211.5" y2="211.5" class="net_138"/>
  <line x1="182" x2="242" y1="146.5" y2="146.5" class="net_99"/>
  <line x1="242" x2="242" y1="146.5" y2="189" class="net_99"/>
  <line x1="242" x2="283" y1="189" y2="189" class="net_99"/>
  <line x1="200" x2="283" y1="204" y2="204" class="net_139"/>
  <line x1="200" x2="252" y1="204" y2="204" class="net_139"/>
  <line x1="252" x2="252" y1="204" y2="298" class="net_139"/>
  <circle cx="252" cy="204" r="2" style="fill:#000" class="net_139"/>
  <line x1="252" x2="380" y1="298" y2="298" class="net_139"/>
  <line x1="182" x2="355" y1="271.5" y2="271.5" class="net_100"/>
  <line x1="355" x2="355" y1="271.5" y2="283" class="net_100"/>
  <line x1="355" x2="380" y1="283" y2="283" class="net_100"/>
  <line x1="182" x2="242" y1="271.5" y2="271.5" class="net_100"/>
  <line x1="242" x2="242" y1="271.5" y2="314" class="net_100"/>
  <circle cx="242" cy="271.5" r="2" style="fill:#000" class="net_100"/>
  <line x1="242" x2="283" y1="314" y2="314" class="net_100"/>
  <line x1="313" x2="355" y1="321.5" y2="321.5" class="net_140"/>
  <line x1="355" x2="355" y1="321.5" y2="381.5" class="net_140"/>
  <line x1="355" x2="380" y1="381.5" y2="381.5" class="net_140"/>
  <line x1="316" x2="380" y1="396.5" y2="396.5" class="net_141"/>
  <line x1="196.66666666666666" x2="283" y1="329" y2="329" class="net_136"/>
  <line x1="182" x2="291" y1="396.5" y2="396.5" class="net_2"/>
  <line x1="297" x2="355" y1="74" y2="74" class="net_238,239,240,241,242,243,244,245,246,247,248,249,250,251,252,253,254,255,256,257,258,259,260,261,262,263,264,265,266,267,268,269"/>
  <line x1="355" x2="355" y1="74" y2="119" class="net_238,239,240,241,242,243,244,245,246,247,248,249,250,251,252,253,254,255,256,257,258,259,260,261,262,263,264,265,266,267,268,269"/>
  <line x1="355" x2="383.3333333333333" y1="119" y2="119" class="net_238,239,240,241,242,243,244,245,246,247,248,249,250,251,252,253,254,255,256,257,258,259,260,261,262,263,264,265,266,267,268,269"/>
  <line x1="295" x2="383.3333333333333" y1="139" y2="139" class="net_35,36,37,38,39,40,41,42,43,44,45,46,47,48,49,50,51,52,53,54,55,56,57,58,59,60,61,62,63,64,65,66"/>
  <line x1="313" x2="355" y1="196.5" y2="196.5" class="net_101"/>
  <line x1="355" x2="355" y1="196.5" y2="186.5" class="net_101"/>
  <line x1="355" x2="393.3333333333333" y1="186.5" y2="186.5" class="net_101"/>
  <circle cx="355" cy="196.5" r="2" style="fill:#000" class="net_101"/>
  <line x1="393.3333333333333" x2="393.3333333333333" y1="186.5" y2="144" class="net_101"/>
  <line x1="313" x2="445" y1="196.5" y2="196.5" class="net_101"/>
  <line x1="410" x2="445" y1="290.5" y2="290.5" class="net_102"/>
  <line x1="40" x2="125" y1="32" y2="32" class="net_67,68,69,70,71,72,73,74,75,76,77,78,79,80,81,82,83,84,85,86,87,88,89,90,91,92,93,94,95,96,97,98"/>
  <line x1="403.3333333333333" x2="445" y1="129" y2="129" class="net_103,104,105,106,107,108,109,110,111,112,113,114,115,116,117,118,119,120,121,122,123,124,125,126,127,128,129,130,131,132,133,134"/>
  <line x1="410" x2="445" y1="389" y2="389" class="net_135"/>
</svg>
